<?xml version="1.0" encoding="utf-8"?>
<!-- Generator: Adobe Illustrator 20.1.0, SVG Export Plug-In . SVG Version: 6.00 Build 0)  -->
<svg version="1.1" id="Layer_1" xmlns="http://www.w3.org/2000/svg" xmlns:xlink="http://www.w3.org/1999/xlink" x="0px" y="0px"
	 viewBox="0 0 612 792" style="enable-background:new 0 0 612 792;" xml:space="preserve">
<style type="text/css">
	.st0{fill:url(#SVGID_1_);}
	.st1{fill:url(#SVGID_2_);}
	.st2{fill:url(#SVGID_3_);}
	.st3{fill:#61BB46;}
	.st4{fill:#097AB8;}
	.st5{fill:#7C78B8;}
	.st6{fill:#CD1F43;}
	.st7{fill:#F47A3E;}
	.st8{fill:#F1A948;}
	.st9{fill:#FFFFFF;}
</style>
<radialGradient id="SVGID_1_" cx="440.1533" cy="648.6838" r="193.3958" gradientTransform="matrix(0.6638 0 0 1 14.3701 0)" gradientUnits="userSpaceOnUse">
	<stop  offset="0" style="stop-color:#717070"/>
	<stop  offset="1" style="stop-color:#3D3D3C"/>
</radialGradient>
<path class="st0" d="M483.4,648.7c0,34.2-79.2,62-176.8,62c-97.7,0-176.8-27.7-176.8-62c0-34.2,79.2-62,176.8-62
	C404.2,586.7,483.4,614.5,483.4,648.7z"/>
<radialGradient id="SVGID_2_" cx="509.4427" cy="181.1386" r="483.0665" gradientUnits="userSpaceOnUse">
	<stop  offset="0" style="stop-color:#D9D9D8"/>
	<stop  offset="1" style="stop-color:#9C9B9B"/>
</radialGradient>
<path class="st1" d="M573.9,214.1C549,168.3,512.7,129.7,468.8,102c-47-29.7-102.6-47-162.3-47s-115.3,17.3-162.3,47
	c-43.9,27.7-80.2,66.3-105.1,112.1C15.8,257.2,2.4,306.6,2.4,359.1c0,168,136.2,304.1,304.1,304.1c168,0,304.1-136.2,304.1-304.1
	C610.7,306.6,597.3,257.2,573.9,214.1z"/>
<radialGradient id="SVGID_3_" cx="306.5493" cy="359.1142" r="219.6342" gradientUnits="userSpaceOnUse">
	<stop  offset="0" style="stop-color:#717070"/>
	<stop  offset="1" style="stop-color:#3D3D3C"/>
</radialGradient>
<path class="st2" d="M526.2,359.1c0,121.3-98.3,219.6-219.6,219.6c-121.3,0-219.6-98.3-219.6-219.6c0-121.3,98.3-219.6,219.6-219.6
	C427.8,139.5,526.2,237.8,526.2,359.1z"/>
<g id="Group-2">
	<path id="Clip-30" class="st3" d="M413.7,401.4h-90.7l73.7-51.1c18.1-11.9,37.3-1.1,42.3,14.6C444.3,382.3,432.3,401.4,413.7,401.4
		L413.7,401.4z"/>
	<path id="Clip-23" class="st4" d="M405.4,338.1l-78.5,53.8l37-85.5c11.2-27,37.3-21.7,46.6-11.4C420.6,305,423.5,325.4,405.4,338.1
		"/>
	<path id="Clip-16" class="st5" d="M365.5,289.6L326.4,382l-12.5-83.4c-1.1-12.7,6.9-13,9.8-15.4c-0.5-1.9-4.5-1.9-4.5-1.9h-7.4
		c-0.8-21.7,16.2-31.2,30.1-30.2C356.7,251.7,373.5,268.9,365.5,289.6L365.5,289.6z"/>
	<path id="Clip-9" class="st6" d="M305.6,285.1L291.8,382l-39.4-92.2c-8.5-23,10.6-38.1,23.4-38.4
		C290.5,249.9,308.8,261,305.6,285.1L305.6,285.1z"/>
	<path id="Clip-2" class="st7" d="M253.2,305.5l38.1,86.6l-78.5-53.5c-19.7-13-15.7-35.2-4.8-45
		C223.4,280.6,245.2,285.1,253.2,305.5"/>
	<g id="Clip-37">
		<path id="path-1_1_" class="st8" d="M178.7,363.8c6.9-18,26.1-24.4,43.1-13.5l73.7,51.1h-89.4
			C187.5,401.4,172.9,384.4,178.7,363.8L178.7,363.8z"/>
	</g>
</g>
<g>
	<g>
		<path class="st9" d="M228,468.5c8.1,25.3,35.5,38.3,59.5,44.1c23.6,5.7,47.2,2.5,69.1-7.7c14-6.5,27.3-17.8,33.5-32.2
			c3.6-8.4,2.8-19.2-6.3-23.9c-7.5-4-20.1-2.7-23.9,6.3c-1,2.3-2.1,4.5-3.5,6.6c-0.3,0.5-0.7,1-1,1.5c-1,1.8,0.9-1.2,0.9-1.1
			c-0.1,0.9-2.2,2.5-2.9,3.2c-0.9,0.9-1.8,1.7-2.7,2.5c-0.5,0.4-1,0.8-1.4,1.2c0.1-0.1,2.7-1.8,1.1-0.9c-2.5,1.5-4.8,3.2-7.4,4.6
			c-1.1,0.6-2.2,1.1-3.4,1.7c-0.4,0.2-1.2,0.7-1.7,0.8c0,0,3.2-1.2,1.3-0.5c-2.5,0.9-5,1.9-7.6,2.7c-2.3,0.7-4.7,1.3-7,1.8
			c-1.1,0.3-2.3,0.5-3.5,0.7c-0.8,0.1-5.1,0.7-2.2,0.4c2.9-0.3-0.8,0.1-1.5,0.1c-1,0.1-2.1,0.2-3.1,0.2c-1.9,0.1-3.8,0.2-5.7,0.1
			c-1.7-0.1-3.3-0.3-5-0.4c-1-0.1,4.5,0.7,1.1,0.1c-1.1-0.2-2.2-0.4-3.3-0.6c-4.5-0.9-8.9-2-13.2-3.4c-2.2-0.7-4.4-1.5-6.6-2.3
			c-0.4-0.1-1.4-0.4-1.6-0.7c-0.1-0.1,3.2,1.5,1.5,0.6c-1.2-0.6-2.5-1.1-3.8-1.8c-2.6-1.3-5.2-2.7-7.6-4.3c-0.3-0.2-3.3-2.2-3.3-2.3
			c0.1-0.1,2.7,2.3,1.4,1c-0.5-0.5-1.1-0.9-1.6-1.4c-0.9-0.8-1.8-1.7-2.7-2.6c-0.3-0.4-0.7-0.8-1-1.2c-1.5-1.4,1.8,2.9,0.9,1.1
			c-0.5-1-1.2-2-1.8-3c-0.4-0.6-0.8-2.1,0,0.3c1,3,0-0.3-0.2-0.7c-2.8-8.7-12.3-15.2-21.5-12.2C231.5,449.8,225,459.2,228,468.5
			L228,468.5z"/>
	</g>
</g>
</svg>
