<?xml version="1.0" encoding="UTF-8" standalone="no"?>
<svg width="53px" height="46px" viewBox="0 0 53 46" version="1.1" xmlns="http://www.w3.org/2000/svg" xmlns:xlink="http://www.w3.org/1999/xlink">
    <!-- Generator: Sketch 40.1 (33804) - http://www.bohemiancoding.com/sketch -->
    <title>msnbc</title>
    <desc>Created with Sketch.</desc>
    <defs>
        <path d="M1.27163946,22.8540445 C2.61088095,19.3697258 6.31817687,18.1390903 9.61391156,20.2404466 L23.8770408,30.1307444 L6.57614626,30.1307444 C2.9712449,30.1307444 0.139710884,26.8516812 1.27163946,22.8540445 L1.27163946,22.8540445 Z" id="path-1"></path>
    </defs>
    <g id="Export" stroke="none" stroke-width="1" fill="none" fill-rule="evenodd">
        <g id="msnbc">
            <g id="msnbc-logo">
                <polygon id="Shape" fill="#FFFFFF" points="0 33.8559993 2.58984578 33.8559993 5.45520707 38.5160998 8.37567146 33.8559993 10.9655172 33.8559993 10.9655172 44.8959993 8.54098077 44.8959993 8.54098077 37.683939 5.45520707 42.3995169 5.40010397 42.3995169 2.36943337 37.7394164 2.36943337 44.8959993 0 44.8959993"></polygon>
                <path d="M13.209839,41.5547198 C14.2574999,42.3622779 15.3633641,42.8468128 16.6438385,42.8468128 C17.6914994,42.8468128 18.3317366,42.4699523 18.3317366,41.8239059 L18.3317366,41.7700687 C18.3317366,41.1778594 17.9243129,40.8548362 16.0036013,40.4241385 C13.675466,39.8857664 12.1621781,39.2935572 12.1621781,37.1400689 L12.1621781,37.0862317 C12.1621781,35.1480923 13.8500762,33.8559993 16.2364149,33.8559993 C17.9243129,33.8559993 19.3793975,34.3405342 20.5434651,35.2019295 L19.2047874,36.9785573 C18.1571265,36.3325108 17.167669,35.9018131 16.1782115,35.9018131 C15.188754,35.9018131 14.6649235,36.3325108 14.6649235,36.8170457 L14.6649235,36.8708829 C14.6649235,37.5707666 15.188754,37.7861154 17.167669,38.2706502 C19.4958043,38.8628595 20.8344821,39.6165804 20.8344821,41.5008826 L20.8344821,41.5547198 C20.8344821,43.6543709 19.0883806,44.8926266 16.5856351,44.8926266 C14.8977371,44.9464638 13.0934322,44.3542546 11.696551,43.2236732 L13.209839,41.5547198 Z" id="Shape" fill="#FFFFFF"></path>
                <polygon id="Shape" fill="#FFFFFF" points="21.7482752 33.8559993 23.8250777 33.8559993 28.6536435 40.6797179 28.6536435 33.8559993 30.8862062 33.8559993 30.8862062 44.8959993 28.9651639 44.8959993 23.9808379 37.9058485 23.9808379 44.8959993 21.7482752 44.8959993"></polygon>
                <path d="M32.8965517,33.8559993 L37.8710467,33.8559993 C39.1146705,33.8559993 40.0879412,34.1855515 40.6827178,34.844656 C41.1693532,35.3389844 41.4397062,35.9431635 41.4397062,36.7121187 L41.4397062,36.7670441 C41.4397062,37.9754023 40.790859,38.6894321 40.0338706,39.1288351 C41.2774944,39.6231635 42.0344828,40.3371933 42.0344828,41.8201784 L42.0344828,41.8751038 C42.0344828,43.8524172 40.4123648,44.8959993 38.0332585,44.8959993 L32.8965517,44.8959993 L32.8965517,33.8559993 L32.8965517,33.8559993 Z M37.3303407,38.3049545 C38.3576821,38.3049545 39.0605999,37.9754023 39.0605999,37.1515217 L39.0605999,37.0965963 C39.0605999,36.3825665 38.5198939,35.9980889 37.4925525,35.9980889 L35.1675168,35.9980889 L35.1675168,38.3049545 L37.3303407,38.3049545 L37.3303407,38.3049545 Z M37.9791879,42.6989844 C39.0065293,42.6989844 39.6553765,42.3145068 39.6553765,41.4906262 L39.6553765,41.4357008 C39.6553765,40.7216709 39.1146705,40.2273426 37.9251173,40.2273426 L35.1675168,40.2273426 L35.1675168,42.644059 L37.9791879,42.644059 L37.9791879,42.6989844 Z" id="Shape" fill="#FFFFFF"></path>
                <path d="M42.0344828,39.3759993 L42.0344828,39.3759993 C42.0344828,36.321242 44.6110797,33.8559993 48.2662521,33.8559993 C50.4833239,33.8559993 51.8615037,34.4991061 52.9400791,35.5173585 L51.2622951,37.23231 C50.3634822,36.4820187 49.4047484,36.0532809 48.2063313,36.0532809 C46.169022,36.0532809 44.7309214,37.5538634 44.7309214,39.3759993 L44.7309214,39.4295915 C44.7309214,41.2517275 46.169022,42.75231 48.2063313,42.75231 C49.584511,42.75231 50.4234031,42.2699799 51.3222159,41.5196886 L53,43.0202711 C51.8015828,44.1993003 50.4234031,44.8959993 48.1464104,44.8959993 C44.6710006,44.8424071 42.0344828,42.4307566 42.0344828,39.3759993" id="Shape" fill="#FFFFFF"></path>
                <g id="Group-2">
                    <path d="M46.6131388,30.9601706 C50.7844551,30.9601706 53.1009517,27.3730447 52.8438837,23.990995 C52.4316014,19.5830268 48.3639415,17.8920019 46.1502,18.2511989 C48.0037578,17.22546 50.4752884,12.4087752 46.7162544,8.61657337 C43.7295061,5.79754068 39.9189143,6.8223825 38.5802136,8.05247976 C39.3016626,5.69473354 38.1169143,0.82619661 33.2764279,0.05774466 C28.9001422,-0.454317415 26.994666,2.5688942 26.4284313,4.00334981 C25.6045878,1.95384557 23.5963565,-0.250138494 19.8371422,0.05774466 C15.0485742,0.570344992 13.5553803,5.13171644 14.2759279,7.84740375 C12.3708122,6.56599263 9.12663538,6.00261669 6.29474082,8.41077968 C2.63900272,12.0497576 4.59585647,16.9690701 6.60390749,18.1483918 C4.38962517,17.9431364 0.888200003,19.4296235 0.116274833,23.3240942 C-0.708289793,28.1413173 2.9991864,30.9601706 6.60390749,30.9601706 L46.6131388,30.9601706" id="Imported-Layers" fill="#FFFFFF"></path>
                    <path d="M46.7396905,30.1307444 L29.1810068,30.1307444 L43.4439558,20.2404466 C46.9462823,17.9340143 50.6530374,20.0351912 51.6313741,23.0592999 C52.661449,26.4411703 50.344051,30.1307444 46.7396905,30.1307444 L46.7396905,30.1307444 Z" id="Clip-30" fill="#60BB46"></path>
                    <path d="M45.1435612,17.8830593 L29.9534728,28.2863162 L37.1100952,11.7332906 C39.2735408,6.50519784 44.3191769,7.53057793 46.1215374,9.52858888 C48.0783912,11.4769007 48.6446259,15.4223265 45.1435612,17.8830593" id="Clip-23" fill="#0479B8"></path>
                    <path d="M37.419983,8.50392647 L29.8496361,26.3898564 L27.4300238,10.2466241 C27.2243333,7.78714722 28.7687245,7.73583336 29.3351395,7.27436747 C29.2322041,6.91552929 28.4597381,6.91552929 28.4597381,6.91552929 L27.018102,6.91552929 C26.8637891,2.71335485 30.158983,0.868208963 32.8371054,1.07292614 C35.7207381,1.1759127 38.9638333,4.50700747 37.419983,8.50392647 L37.419983,8.50392647 Z" id="Clip-16" fill="#7C77B7"></path>
                    <path d="M25.8340748,7.63302622 L23.1561327,26.3898564 L15.5353095,8.55541975 C13.8876224,4.0964966 17.5950986,1.1759127 20.0668095,1.12424 C22.8987041,0.817253942 26.4518673,2.96938589 25.8340748,7.63302622 L25.8340748,7.63302622 Z" id="Clip-9" fill="#CD1041"></path>
                    <path d="M15.6793469,11.5789902 L23.0432823,28.3372712 L7.85319388,17.9851487 C4.04206122,15.474358 4.81506803,11.1693764 6.92623469,9.27273726 C9.91262245,6.76194656 14.1345952,7.63302622 15.6793469,11.5789902" id="Clip-2" fill="#F4793E"></path>
                    <mask id="mask-2" fill="white">
                        <use xlink:href="#path-1"></use>
                    </mask>
                    <use id="Clip-37" fill="#F1A948" xlink:href="#path-1"></use>
                </g>
            </g>
        </g>
    </g>
</svg>