<?xml version="1.0" encoding="UTF-8" standalone="no"?>
<svg width="65px" height="42px" viewBox="0 0 65 42" version="1.1" xmlns="http://www.w3.org/2000/svg" xmlns:xlink="http://www.w3.org/1999/xlink">
    <!-- Generator: Sketch 40.1 (33804) - http://www.bohemiancoding.com/sketch -->
    <title>Artboard</title>
    <desc>Created with Sketch.</desc>
    <defs>
        <radialGradient cx="50%" cy="0%" fx="50%" fy="0%" r="916.213082%" id="radialGradient-1">
            <stop stop-color="#F4CC67" offset="0%"></stop>
            <stop stop-color="#C0822B" offset="100%"></stop>
        </radialGradient>
        <radialGradient cx="50%" cy="0%" fx="50%" fy="0%" r="3261.95982%" id="radialGradient-2">
            <stop stop-color="#1F3264" offset="0%"></stop>
            <stop stop-color="#144980" offset="100%"></stop>
        </radialGradient>
        <radialGradient cx="50%" cy="0%" fx="50%" fy="0%" r="222.6299%" id="radialGradient-3">
            <stop stop-color="#FFFFFF" offset="0%"></stop>
            <stop stop-color="#E8E9E8" offset="100%"></stop>
        </radialGradient>
        <radialGradient cx="50%" cy="0%" fx="50%" fy="0%" r="100%" id="radialGradient-4">
            <stop stop-color="#5A5A5A" offset="0%"></stop>
            <stop stop-color="#2E2F2D" offset="100%"></stop>
        </radialGradient>
        <linearGradient x1="50%" y1="0%" x2="50%" y2="100%" id="linearGradient-5">
            <stop stop-color="#424342" offset="0%"></stop>
            <stop stop-color="#30312F" offset="100%"></stop>
        </linearGradient>
    </defs>
    <g id="Export" stroke="none" stroke-width="1" fill="none" fill-rule="evenodd">
        <g id="Artboard">
            <g id="Meet-The-Press-Stacked">
                <path d="M0.778443114,34.5767442 L64.4161677,34.5767442 L64.4161677,39.0937509 C64.4161677,39.6199461 63.975812,40.0465116 63.4546525,40.0465116 L1.73995827,40.0465116 C1.20892811,40.0465116 0.778443114,39.6173082 0.778443114,39.0937509 L0.778443114,34.5767442 Z" id="Bottom" fill="url(#radialGradient-1)"></path>
                <path d="M1.94610778,0.879069767 C1.94610778,0.393572941 2.33384458,0 2.82785004,0 L61.7829284,0 C62.2699012,0 62.6646707,0.390188146 62.6646707,0.879069767 L62.6646707,1.75813953 L1.94610778,1.75813953 L1.94610778,0.879069767 Z" id="Top" fill="url(#radialGradient-2)"></path>
                <rect id="Top-Copy" fill="url(#radialGradient-2)" transform="translate(32.305389, 40.925581) rotate(-180.000000) translate(-32.305389, -40.925581) " x="1.94610778" y="40.0465116" width="60.7185629" height="1.75813953" rx="0.879069767"></rect>
                <rect id="Middle" fill="url(#radialGradient-3)" x="0" y="1.75813953" width="65" height="32.8186047" rx="0.9625"></rect>
                <path d="M14.6719617,16.4419876 L14.6719617,3.83804031 L11.7147815,3.83804031 L8.45292211,12.1335919 L5.20898501,3.83804031 L2.25180479,3.83804031 L2.25180479,16.4419876 L4.3487144,16.4419876 L4.3487144,7.08823363 L8.0048645,16.4419876 L8.90097972,16.4419876 L12.5750521,7.08823363 L12.5750521,16.4419876 L14.6719617,16.4419876 Z M24.1594234,16.4419876 L24.1594234,14.495651 L18.0658399,14.495651 L18.0658399,10.9998035 L24.0339673,10.9998035 L24.0339673,9.05346679 L18.0658399,9.05346679 L18.0658399,5.78437701 L24.1594234,5.78437701 L24.1594234,3.83804031 L15.9689303,3.83804031 L15.9689303,16.4419876 L24.1594234,16.4419876 Z M33.4472052,16.4419876 L33.4472052,14.495651 L27.3536217,14.495651 L27.3536217,10.9998035 L33.3217491,10.9998035 L33.3217491,9.05346679 L27.3536217,9.05346679 L27.3536217,5.78437701 L33.4472052,5.78437701 L33.4472052,3.83804031 L25.2567121,3.83804031 L25.2567121,16.4419876 L33.4472052,16.4419876 Z M40.269493,16.4419876 L40.269493,5.78437701 L43.8897985,5.78437701 L43.8897985,3.83804031 L34.5522779,3.83804031 L34.5522779,5.78437701 L38.1725834,5.78437701 L38.1725834,16.4419876 L40.269493,16.4419876 Z M16.3182056,29.7923933 L16.3182056,25.1618437 L19.4851281,25.1618437 C21.9862772,25.1618437 23.4077935,23.3765716 23.4077935,21.2751575 C23.4077935,19.1737434 22.004271,17.3884713 19.4851281,17.3884713 L14.2129218,17.3884713 L14.2129218,29.7923933 L16.3182056,29.7923933 Z M19.197226,23.2463955 L16.3182056,23.2463955 L16.3182056,19.3039195 L19.197226,19.3039195 C20.384822,19.3039195 21.2485282,20.0849761 21.2485282,21.2751575 C21.2485282,22.4653389 20.384822,23.2463955 19.197226,23.2463955 L19.197226,23.2463955 Z M33.5758342,29.7923933 L30.642832,24.9200881 C32.0823423,24.6783325 33.4858648,23.4881511 33.4858648,21.2751575 C33.4858648,18.9877776 31.9383913,17.3884713 29.5631993,17.3884713 L24.2909931,17.3884713 L24.2909931,29.7923933 L26.3962768,29.7923933 L26.3962768,25.1618437 L28.4835667,25.1618437 L31.1466606,29.7923933 L33.5758342,29.7923933 Z M29.2752973,23.2463955 L26.3962768,23.2463955 L26.3962768,19.3039195 L29.2752973,19.3039195 C30.4628933,19.3039195 31.3265994,20.0849761 31.3265994,21.2751575 C31.3265994,22.4653389 30.4628933,23.2463955 29.2752973,23.2463955 L29.2752973,23.2463955 Z M42.9521442,29.7923933 L42.9521442,27.8769451 L36.8342256,27.8769451 L36.8342256,24.4365769 L42.826187,24.4365769 L42.826187,22.5211287 L36.8342256,22.5211287 L36.8342256,19.3039195 L42.9521442,19.3039195 L42.9521442,17.3884713 L34.7289419,17.3884713 L34.7289419,29.7923933 L42.9521442,29.7923933 Z M48.3518071,30.0155523 C51.5907052,30.0155523 52.9942277,28.2488768 52.9942277,26.1846559 C52.9942277,21.5541063 46.012603,22.9860433 46.012603,20.6800668 C46.012603,19.7502375 46.8043336,19.1365502 48.0459112,19.1365502 C49.3054827,19.1365502 50.583048,19.5828683 51.5187297,20.5498907 L52.7243195,18.9319878 C51.6086991,17.8161927 50.0972133,17.2025054 48.22585,17.2025054 C45.5987438,17.2025054 43.8533376,18.7832151 43.8533376,20.8288395 C43.8533376,25.4035993 50.8529562,23.7856964 50.8529562,26.3892183 C50.8529562,27.207468 50.1691888,28.0815075 48.4417765,28.0815075 C46.7683458,28.0815075 45.4727866,27.2818544 44.6450682,26.3706217 L43.4754661,28.0443143 C44.537105,29.2158992 46.1385601,30.0155523 48.3518071,30.0155523 L48.3518071,30.0155523 Z M58.1779641,30.0155523 C61.4168621,30.0155523 62.8203846,28.2488768 62.8203846,26.1846559 C62.8203846,21.5541063 55.8387599,22.9860433 55.8387599,20.6800668 C55.8387599,19.7502375 56.6304906,19.1365502 57.8720681,19.1365502 C59.1316396,19.1365502 60.409205,19.5828683 61.3448866,20.5498907 L62.5504764,18.9319878 C61.434856,17.8161927 59.9233702,17.2025054 58.0520069,17.2025054 C55.4249007,17.2025054 53.6794945,18.7832151 53.6794945,20.8288395 C53.6794945,25.4035993 60.6791131,23.7856964 60.6791131,26.3892183 C60.6791131,27.207468 59.9953458,28.0815075 58.2679335,28.0815075 C56.5945028,28.0815075 55.2989436,27.2818544 54.4712252,26.3706217 L53.3016231,28.0443143 C54.3632619,29.2158992 55.9647171,30.0155523 58.1779641,30.0155523 L58.1779641,30.0155523 Z" id="MEET----PRESS" fill="url(#radialGradient-4)"></path>
                <path d="M57.3103713,16.1610958 L51.7299283,16.1610958 L56.2629318,13.064895 C57.3760297,12.3428563 58.5540984,13.0006389 58.8650302,13.9473493 C59.1924052,15.0060585 58.4558974,16.1610958 57.3103713,16.1610958 L57.3103713,16.1610958 Z" id="Clip-30" fill="#26B24B"></path>
                <path d="M56.8030948,12.3269046 L51.9754309,15.5836895 L54.2499251,10.4016927 C54.9375042,8.76501553 56.5410917,9.08601523 57.113912,9.71150126 C57.7358328,10.3214288 57.9157916,11.5565615 56.8030948,12.3269046" id="Path" fill="#2088CA"></path>
                <path d="M54.3484126,9.39072623 L51.9424298,14.9899945 L51.1734366,9.93628531 C51.1080647,9.16633537 51.5988981,9.15027134 51.7789142,9.00580743 C51.7461996,8.89347158 51.500697,8.89347158 51.500697,8.89347158 L51.042521,8.89347158 C50.9934778,7.57796257 52.0407454,7.00033161 52.8918975,7.06441921 C53.8083642,7.0966596 54.839074,8.13947333 54.3484126,9.39072623 L54.3484126,9.39072623 Z" id="Path" fill="#5E5BA8"></path>
                <path d="M50.6662174,9.11808712 L49.8151226,14.9899945 L47.3930977,9.40684643 C46.8694352,8.01096111 48.0477331,7.0966596 48.8332841,7.08048324 C49.7333075,6.98437992 50.8625621,7.6581142 50.6662174,9.11808712 L50.6662174,9.11808712 Z" id="Path" fill="#CA214C"></path>
                <path d="M47.4388752,10.3533883 L49.7792569,15.5996412 L44.9515929,12.3588642 C43.7403513,11.5728502 43.9860258,10.225157 44.6569898,9.6314058 C45.6061137,8.84539183 46.9479272,9.11808712 47.4388752,10.3533883" id="Path" fill="#F27026"></path>
                <path d="M42.859865,13.8830932 C43.2854983,12.792312 44.4637389,12.4070562 45.5111784,13.064895 L50.0442392,16.1610958 L44.5457259,16.1610958 C43.400028,16.1610958 42.5001191,15.1345708 42.859865,13.8830932 L42.859865,13.8830932 Z" id="Path" fill="#FAB814"></path>
                <path d="M4.04096231,21.5458467 L4.04096231,18.3578446 L5.17174494,18.3578446 L5.17174494,17.7756386 L2.25522143,17.7756386 L2.25522143,18.3578446 L3.38600406,18.3578446 L3.38600406,21.5458467 L4.04096231,21.5458467 Z M9.13743909,21.5458467 L9.13743909,17.7756386 L8.48248083,17.7756386 L8.48248083,19.3187672 L6.53999781,19.3187672 L6.53999781,17.7756386 L5.88503956,17.7756386 L5.88503956,21.5458467 L6.53999781,21.5458467 L6.53999781,19.9009733 L8.48248083,19.9009733 L8.48248083,21.5458467 L9.13743909,21.5458467 Z M12.6497006,21.5458467 L12.6497006,20.9636407 L10.7464031,20.9636407 L10.7464031,19.9179307 L12.6105151,19.9179307 L12.6105151,19.3357247 L10.7464031,19.3357247 L10.7464031,18.3578446 L12.6497006,18.3578446 L12.6497006,17.7756386 L10.0914449,17.7756386 L10.0914449,21.5458467 L12.6497006,21.5458467 Z" id="THE" fill="url(#linearGradient-5)"></path>
                <rect id="Rectangle-3" fill="#000000" x="0" y="32.427907" width="23.5479042" height="0.193395349"></rect>
                <rect id="Rectangle-3-Copy" fill="#000000" x="43.008982" y="32.427907" width="21.991018" height="0.193395349"></rect>
                <path d="M27.7599012,33.6286961 L28.4088301,31.3419749 L28.0946119,31.3419749 L27.5925459,33.2481473 L27.0699875,31.3419749 L26.8343238,31.3419749 L26.3117654,33.2481473 L25.806284,31.3419749 L25.4920658,31.3419749 L26.1409946,33.6286961 L26.448382,33.6286961 L26.9504479,31.7842343 L27.4525139,33.6286961 L27.7599012,33.6286961 Z M31.5031959,33.6286961 L31.5031959,31.3419749 L31.2197165,31.3419749 L31.2197165,33.6286961 L31.5031959,33.6286961 Z M35.3762764,33.6286961 L35.3762764,31.5956741 L36.1003443,31.5956741 L36.1003443,31.3419749 L34.3721444,31.3419749 L34.3721444,31.5956741 L35.092797,31.5956741 L35.092797,33.6286961 L35.3762764,33.6286961 Z M40.8682635,33.6286961 L40.8682635,31.3419749 L40.584784,31.3419749 L40.584784,32.3259164 L39.2527723,32.3259164 L39.2527723,31.3419749 L38.9692928,31.3419749 L38.9692928,33.6286961 L39.2527723,33.6286961 L39.2527723,32.5796156 L40.584784,32.5796156 L40.584784,33.6286961 L40.8682635,33.6286961 Z" id="WITH" fill="#000000"></path>
                <path d="M6.60901705,39.5064879 C7.34280818,39.5064879 7.8402937,39.1569273 8.18853356,38.6825237 L7.74701517,38.4390798 C7.51070955,38.7948825 7.08162829,39.0445686 6.60901705,39.0445686 C5.70110598,39.0445686 5.01084483,38.3392053 5.01084483,37.3529452 C5.01084483,36.3604429 5.70110598,35.6613218 6.60901705,35.6613218 C7.08162829,35.6613218 7.51070955,35.9172501 7.74701517,36.2668106 L8.18231499,36.0233666 C7.85273084,35.5552052 7.34280818,35.1994025 6.60901705,35.1994025 C5.41505181,35.1994025 4.4760479,36.0733039 4.4760479,37.3529452 C4.4760479,38.6325865 5.41505181,39.5064879 6.60901705,39.5064879 L6.60901705,39.5064879 Z M14.2152153,39.4315821 L14.2152153,35.2680662 L13.6990741,35.2680662 L13.6990741,37.059564 L11.2738322,37.059564 L11.2738322,35.2680662 L10.757691,35.2680662 L10.757691,39.4315821 L11.2738322,39.4315821 L11.2738322,37.5214833 L13.6990741,37.5214833 L13.6990741,39.4315821 L14.2152153,39.4315821 Z M18.7867519,39.5064879 C19.9123129,39.5064879 20.4782027,38.8448197 20.4782027,37.8086223 L20.4782027,35.2680662 L19.9620615,35.2680662 L19.9620615,37.8023802 C19.9620615,38.5639228 19.5516359,39.0445686 18.7867519,39.0445686 C18.021868,39.0445686 17.6114424,38.5639228 17.6114424,37.8023802 L17.6114424,35.2680662 L17.0953012,35.2680662 L17.0953012,37.8148645 C17.0953012,38.8385776 17.661191,39.5064879 18.7867519,39.5064879 L18.7867519,39.5064879 Z M25.3233563,39.5064879 C26.0571475,39.5064879 26.554633,39.1569273 26.9028728,38.6825237 L26.4613545,38.4390798 C26.2250488,38.7948825 25.7959676,39.0445686 25.3233563,39.0445686 C24.4154453,39.0445686 23.7251841,38.3392053 23.7251841,37.3529452 C23.7251841,36.3604429 24.4154453,35.6613218 25.3233563,35.6613218 C25.7959676,35.6613218 26.2250488,35.9172501 26.4613545,36.2668106 L26.8966543,36.0233666 C26.5670701,35.5552052 26.0571475,35.1994025 25.3233563,35.1994025 C24.1293911,35.1994025 23.1903872,36.0733039 23.1903872,37.3529452 C23.1903872,38.6325865 24.1293911,39.5064879 25.3233563,39.5064879 L25.3233563,39.5064879 Z M32.6186262,39.4315821 L30.7406183,37.2468286 L32.4693805,35.2680662 L31.8226493,35.2680662 L29.9881715,37.4216089 L29.9881715,35.2680662 L29.4720303,35.2680662 L29.4720303,39.4315821 L29.9881715,39.4315821 L29.9881715,38.0333398 L30.4048156,37.5589362 L31.9781136,39.4315821 L32.6186262,39.4315821 Z M40.1759643,39.4315821 L40.1759643,35.7299855 L41.4943009,35.7299855 L41.4943009,35.2680662 L38.347705,35.2680662 L38.347705,35.7299855 L39.6598231,35.7299855 L39.6598231,39.4315821 L40.1759643,39.4315821 Z M45.8108762,39.5064879 C47.0359343,39.5064879 47.8692225,38.5826493 47.8692225,37.3529452 C47.8692225,36.1232411 47.0359343,35.1994025 45.8108762,35.1994025 C44.5795996,35.1994025 43.7525299,36.1232411 43.7525299,37.3529452 C43.7525299,38.5826493 44.5795996,39.5064879 45.8108762,39.5064879 L45.8108762,39.5064879 Z M45.8108762,39.0445686 C44.8780909,39.0445686 44.2873268,38.3204789 44.2873268,37.3529452 C44.2873268,36.3791694 44.8780909,35.6613218 45.8108762,35.6613218 C46.737443,35.6613218 47.3344256,36.3791694 47.3344256,37.3529452 C47.3344256,38.3204789 46.737443,39.0445686 45.8108762,39.0445686 L45.8108762,39.0445686 Z M52.0054593,39.4315821 C53.2927031,39.4315821 54.1322099,38.5389542 54.1322099,37.3529452 C54.1322099,36.1731783 53.2927031,35.2680662 52.0054593,35.2680662 L50.5876256,35.2680662 L50.5876256,39.4315821 L52.0054593,39.4315821 Z M52.0054593,38.9696628 L51.1037668,38.9696628 L51.1037668,35.7299855 L52.0054593,35.7299855 C53.0315232,35.7299855 53.597413,36.4540752 53.597413,37.3529452 C53.597413,38.245573 53.0128675,38.9696628 52.0054593,38.9696628 L52.0054593,38.9696628 Z M58.2684467,39.4315821 C59.5556905,39.4315821 60.3951973,38.5389542 60.3951973,37.3529452 C60.3951973,36.1731783 59.5556905,35.2680662 58.2684467,35.2680662 L56.850613,35.2680662 L56.850613,39.4315821 L58.2684467,39.4315821 Z M58.2684467,38.9696628 L57.3667542,38.9696628 L57.3667542,35.7299855 L58.2684467,35.7299855 C59.2945106,35.7299855 59.8604004,36.4540752 59.8604004,37.3529452 C59.8604004,38.245573 59.2758549,38.9696628 58.2684467,38.9696628 L58.2684467,38.9696628 Z" id="CHUCK-TODD" fill="#000000"></path>
            </g>
        </g>
    </g>
</svg>