<?xml version="1.0" encoding="UTF-8" standalone="no"?>
<svg width="365px" height="38px" viewBox="0 0 365 38" version="1.1" xmlns="http://www.w3.org/2000/svg" xmlns:xlink="http://www.w3.org/1999/xlink">
    <!-- Generator: Sketch 40.1 (33804) - http://www.bohemiancoding.com/sketch -->
    <title>nbcnewsdigital</title>
    <desc>Created with Sketch.</desc>
    <defs></defs>
    <g id="Export" stroke="none" stroke-width="1" fill="none" fill-rule="evenodd">
        <g id="nbcnewsdigital" fill="#FFFFFF">
            <g id="Group">
                <path d="M365,34.5232523 L348.371548,34.5232523 L348.371548,5.04144134 L347.298744,5.04144134 L347.298744,35.5158348 L365,35.5158348 L365,34.5232523 Z M171.874901,17.8519821 C170.945464,16.1871551 169.143019,11.4762614 173.797934,6.87817122 C178.450039,2.28299307 187.861767,6.22167098 187.861767,6.22167098 L187.861767,12.1304967 C187.861767,12.1304967 179.73543,7.98452234 177.641191,11.755816 C175.546952,15.5271096 181.811696,17.2601746 183.95155,18.1089067 C186.091405,18.9576387 189.279535,21.0370922 189.78726,24.3208877 C190.292175,27.6043595 190.457911,32.569073 185.456662,35.0205511 C182.405374,36.5162103 177.28033,37.4904717 171.367526,34.6362569 L171.469423,27.980011 C171.469423,27.980011 174.60889,31.1683567 179.062121,30.9826341 C183.515703,30.7949701 184.829115,26.2916826 181.49007,24.2315855 C176.927589,21.4124098 172.786377,19.4846387 171.874901,17.8519821 Z M125.31396,6.25709717 L140.80519,37.3409299 L147.600763,24.6080194 L154.39492,37.3409299 L169.617188,6.25709717 L161.871749,6.25709717 L153.717557,23.2338806 L150.724278,17.4898901 L156.432672,6.38016884 L149.232239,6.25515903 L147.598286,10.373699 L145.424283,6.25515903 L138.491397,6.25515903 L144.064602,17.2411626 L141.210759,23.1085478 L132.514039,6.25709717 L125.309359,6.25709717 L125.31396,6.25709717 Z M75.938648,4.61906583 L96.127537,22.3643998 L96.127537,5.74608345 L102.659809,5.74608345 L102.659809,36.5228833 L82.51268,18.4318484 L82.51268,35.5133716 L75.938648,35.5133716 L75.938648,4.61906583 Z M105.777661,5.43711243 L105.777661,35.7048367 L123.514028,35.7048367 L123.616659,30.6599971 L112.784512,30.6599971 L112.784512,23.425875 L123.616659,23.425875 L123.616659,17.8090045 L112.784512,17.8090045 L112.784512,11.0536546 L123.616659,11.0536546 L123.616659,5.43711243 L105.777661,5.43711243 Z M52.8871081,20.4021798 L34.8015553,32.3334608 L40.8938398,18.0494464 L43.7817384,11.3966651 C44.9534068,9.24990135 47.1570823,7.8763868 49.5630124,7.83841474 C51.866446,7.83841474 53.9085526,8.93154975 55.2038427,10.8942065 C56.5351241,12.8572469 56.6137569,16.0618585 55.2793459,18.0494464 C54.6807974,18.9799536 53.8009703,19.8111198 52.8898465,20.4021798 L52.8871081,20.4021798 Z M43.8830613,9.34248024 L34.9384781,30.3738571 L34.539837,28.0804742 L31.8510634,10.8389213 C31.737613,9.78870581 32.1730277,8.90128147 33.0203846,8.31933217 L34.3043297,7.5583513 C34.3790505,7.29309069 34.0058379,7.20338156 33.8286206,7.11212572 L31.3119786,7.08853841 C31.1508008,4.60336358 32.2442276,2.34787504 34.3653582,0.987544398 C36.0060852,-0.0731113621 38.5125558,-0.352292353 40.345366,0.509611288 C42.7231291,1.47282438 44.3775484,3.99512023 44.4170604,6.56768412 C44.4061066,7.52045692 44.2425816,8.49681704 43.8830613,9.34789372 L43.8830613,9.34248024 Z M26.706285,30.3738571 L17.900972,9.331282 C16.9562043,7.07714771 17.3548454,4.11666656 18.9740559,2.294832 C20.7047608,0.382291697 23.1470733,-0.425954397 25.6629329,0.21824939 C27.7918876,0.737009061 29.7831371,2.76148411 30.3089209,4.92452667 C30.5573381,5.73586062 30.5209557,6.71200884 30.4724459,7.59667935 L26.7090235,30.3738571 L26.706285,30.3738571 Z M7.88486969,19.6298347 C6.07709683,18.0859062 5.27159925,16.0236342 5.53136146,13.6428528 C5.79503575,11.2325939 7.72408314,8.87286779 10.0271255,8.14665098 C12.394326,7.4177544 14.9719965,7.99428709 16.6913564,9.74149507 C17.4131354,10.4187104 17.8595039,11.2207264 18.2319341,12.0503056 L26.7430586,32.3334608 L7.88486969,19.6321316 L7.88486969,19.6298347 Z M5.95308385,35.2677279 C3.59957561,34.9993425 1.78710825,33.7076146 0.679989186,31.5142859 C-0.439648541,29.2960555 -0.151328134,26.1544847 1.35834412,24.1939674 C2.99946231,22.193133 5.37448699,21.1895537 7.76711604,21.6777067 C8.74474521,21.8377893 9.55806695,22.2650714 10.3299206,22.7567818 L28.6380709,35.2728663 L5.95308385,35.2677279 Z M55.6580354,35.2677279 C58.0115436,34.9993425 59.8244022,33.7076146 60.9311301,31.5142859 C62.0535063,29.2960555 61.7593177,26.1544847 60.2539488,24.1939674 C58.6120482,22.193133 56.2362411,21.1895537 53.8451768,21.6777067 C52.8702861,21.8377893 52.0542259,22.2650714 51.2839371,22.7567818 L32.9746132,35.2728663 L55.655297,35.2677279 L55.6580354,35.2677279 Z M206.911485,5.04144134 L206.911485,35.5158348 L216.26633,35.5158348 C225.707,35.5158348 231.071017,30.0038343 231.071017,20.2680787 C231.071017,10.5534418 225.707,5.04144134 216.26633,5.04144134 L206.911485,5.04144134 Z M208.005744,6.0340238 L216.244874,6.0340238 C225.063318,6.0340238 229.998214,11.1447675 229.998214,20.2680787 C229.998214,29.4125086 225.063318,34.5232523 216.244874,34.5232523 L208.005744,34.5232523 L208.005744,6.0340238 Z M240.422321,35.5158348 L240.422321,5.04144134 L239.349518,5.04144134 L239.349518,35.5158348 L240.422321,35.5158348 Z M274.362279,23.6048452 L274.362279,20.5637415 L261.91776,20.5637415 L261.91776,21.5352052 L273.310932,21.5352052 L273.310932,23.6470828 C273.310932,30.6585163 269.041174,34.9456278 262.046496,34.9456278 C254.772889,34.9456278 249.773626,28.905658 249.773626,20.0780097 C249.773626,11.3770741 254.665609,5.61164829 262.046496,5.61164829 C267.517793,5.61164829 271.894831,8.80058343 273.096371,13.6367831 L274.147718,13.6367831 C273.010547,8.25149526 268.140019,4.61906583 262.046496,4.61906583 C254.043383,4.61906583 248.700822,10.8068671 248.700822,20.0780097 C248.700822,29.4758649 254.150663,35.9382103 262.046496,35.9382103 C269.684856,35.9382103 274.362279,31.2498421 274.362279,23.6048452 Z M283.928144,35.5158348 L283.928144,5.04144134 L282.855341,5.04144134 L282.855341,35.5158348 L283.928144,35.5158348 Z M303.3638,35.5158348 L303.3638,6.0340238 L314.542411,6.0340238 L314.542411,5.04144134 L291.133841,5.04144134 L291.133841,6.0340238 L302.312453,6.0340238 L302.312453,35.5158348 L303.3638,35.5158348 Z M338.741314,35.5158348 L339.942854,35.5158348 L328.034737,5.04144134 L326.940477,5.04144134 L315.03236,35.5158348 L316.212443,35.5158348 L320.289096,24.9353281 L334.686118,24.9353281 L338.741314,35.5158348 Z M327.433967,6.49863687 L327.541247,6.49863687 L334.299908,23.9638644 L320.675305,23.9638644 L327.433967,6.49863687 Z" id="NBC-News-Digital-Logo"></path>
            </g>
        </g>
    </g>
</svg>