<?xml version="1.0" encoding="UTF-8" standalone="no"?>
<svg width="58px" height="47px" viewBox="0 0 58 47" version="1.1" xmlns="http://www.w3.org/2000/svg" xmlns:xlink="http://www.w3.org/1999/xlink">
    <!-- Generator: Sketch 40.1 (33804) - http://www.bohemiancoding.com/sketch -->
    <title>nbnews</title>
    <desc>Created with Sketch.</desc>
    <defs>
        <path d="M1.39160544,24.8413527 C2.85719048,21.0540498 6.91423129,19.7164025 10.5208844,22.0004855 L26.1295918,32.7508091 L7.19653741,32.7508091 C3.25155102,32.7508091 0.152891156,29.18661 1.39160544,24.8413527 L1.39160544,24.8413527 Z" id="path-1"></path>
    </defs>
    <g id="Export" stroke="none" stroke-width="1" fill="none" fill-rule="evenodd">
        <g id="nbnews">
            <g id="Logo">
                <polyline id="Fill-44" fill="#FFFFFF" points="0.00924269006 37.1029267 5.7709152 42.5415581 5.7709152 37.4485742 7.63564912 37.4485742 7.63564912 46.8827943 1.88576316 41.3373828 1.88576316 46.5729642 0.00924269006 46.5729642 0.00924269006 37.1029267"></polyline>
                <path d="M10.6301111,38.97578 L12.0257573,38.97578 C12.4949298,39.0111771 13.0600906,39.3692683 13.0600906,40.0135635 C13.0600906,40.6214526 12.6273801,41.0510107 12.0617953,41.1227299 L10.6301111,41.1227299 L10.6301111,38.97578 L10.6301111,38.97578 Z M8.74188889,46.561025 L13.2163684,46.561025 C14.2748684,46.561025 15.5142368,45.5357692 15.5142368,44.1402308 C15.5142368,42.7086225 14.5756374,42.0047996 13.9623977,41.7185957 C13.9623977,41.7185957 15.0931433,41.086576 15.0445556,39.7271914 C14.9846053,37.902347 13.2767427,37.4485742 12.6753743,37.4485742 L8.74188889,37.4485742 L8.74188889,46.561025 L8.74188889,46.561025 Z M10.6424912,42.6844919 L12.3508626,42.6844919 C12.7353246,42.6964311 13.4449766,43.0785689 13.4449766,43.8774848 C13.4449766,44.7005313 12.7230292,45.0582862 12.3022749,45.0941038 L10.6424912,45.0941038 L10.6424912,42.6844919 L10.6424912,42.6844919 Z" id="Fill-45" fill="#FFFFFF"></path>
                <path d="M22.5623392,39.3332826 C20.589576,38.0335939 17.9194561,39.3574973 17.7509678,41.7668569 C17.678807,44.6885921 20.589576,45.8928515 22.5623392,44.6291485 L22.5623392,46.5015814 C19.0744532,47.7893309 15.8744474,45.3564293 15.8620673,41.8261324 C15.8744474,38.8327621 19.2063947,36.1852075 22.5623392,37.5086064 L22.5623392,39.3332826" id="Fill-46" fill="#FFFFFF"></path>
                <polyline id="Fill-47" fill="#FFFFFF" points="26.9403216 37.1029267 32.7017398 42.5415581 32.7017398 37.4485742 34.5664737 37.4485742 34.5664737 46.8827943 28.8168421 41.3373828 28.8168421 46.5729642 26.9403216 46.5729642 26.9403216 37.1029267"></polyline>
                <polyline id="Fill-48" fill="#FFFFFF" points="37.3087544 39.0353077 37.3087544 41.1578748 40.3038947 41.1578748 40.3038947 42.7680662 37.3087544 42.7680662 37.3087544 44.9510859 40.3038947 44.9510859 40.3038947 46.561025 35.4318947 46.561025 35.4318947 37.4485742 40.3038947 37.4485742 40.3038947 39.0353077 37.3087544 39.0353077"></polyline>
                <polyline id="Fill-49" fill="#FFFFFF" points="42.5889591 37.4485742 45.0190234 42.7923649 45.884614 40.871839 44.2613772 37.4485742 46.1734269 37.4485742 46.7750497 38.8681592 47.3525906 37.4485742 49.2291111 37.4485742 47.6772719 40.8602361 48.5434561 42.7923649 50.8647281 37.4485742 52.921269 37.4485742 48.7113509 46.9189481 46.8231287 42.899229 44.9467778 46.9310555 40.6163655 37.4485742 42.5889591 37.4485742"></polyline>
                <path d="M55.4351111,37.1981878 C55.6035994,37.1981878 56.4819942,37.2459445 57.3239269,37.7470537 L57.3239269,39.5241413 C56.8309269,39.213975 56.1811404,38.7966923 55.5556053,38.7966923 C54.7972807,38.7966923 54.3164064,39.3574973 54.3164064,39.8702093 C54.3164064,41.169898 57.9730351,41.0510107 57.9730351,43.9253256 C57.9730351,44.8793667 57.2875497,46.8474812 54.8696111,46.8474812 C54.821617,46.8474812 54.0761813,46.9189481 52.7768626,46.2507746 L52.7768626,44.2713936 C53.4986404,45.0465152 54.4008626,45.2493971 54.7497105,45.2493971 C55.5316082,45.2493971 56.0969386,44.6406673 56.0969386,43.9012791 C56.0969386,42.4818623 52.5364678,42.7447764 52.5364678,39.8702093 C52.5364678,38.3076064 53.8833567,37.1981878 55.4351111,37.1981878" id="Fill-50" fill="#FFFFFF"></path>
                <path d="M51.0106047,33.6523593 C55.5754414,33.6523593 58.1104754,29.7533095 57.8291557,26.0771684 C57.3779789,21.2858987 52.9265775,19.4478282 50.5039925,19.8382597 C52.5324142,18.7233261 55.2371081,13.4877991 51.1234482,9.36584062 C47.8549312,6.30167465 43.6848496,7.41563315 42.2198564,8.7526954 C43.0093666,6.18992776 41.7128496,0.898039794 36.4157135,0.0627659347 C31.6265707,-0.493823277 29.5413326,2.79227631 28.9216795,4.35146718 C28.0201149,2.12374519 25.8224278,-0.271889667 21.7085707,0.0627659347 C16.468251,0.619940209 14.8341897,5.57795266 15.6227135,8.52978668 C13.53787,7.13694851 9.98763871,6.52458336 6.88858429,9.14215183 C2.88796525,13.0975626 5.02942783,18.4446415 7.22691763,19.7265128 C4.80374076,19.5034091 0.971992456,21.119156 0.127244157,25.3522763 C-0.775109585,30.5883883 3.28212851,33.6523593 7.22691763,33.6523593 L51.0106047,33.6523593" id="Imported-Layers" fill="#FFFFFF"></path>
                <path d="M51.1490952,32.7508091 L31.933932,32.7508091 L47.5424422,22.0004855 C51.3751769,19.4934938 55.4316259,21.7773817 56.5022585,25.0644564 C57.6295102,28.7404025 55.0934898,32.7508091 51.1490952,32.7508091 L51.1490952,32.7508091 Z" id="Clip-30" fill="#60BB46"></path>
                <path d="M49.4023878,19.4381079 L32.7792721,30.7459959 L40.6110476,12.7535768 C42.9785918,7.07086722 48.5002313,8.18541079 50.4726259,10.3571618 C52.6140884,12.4748921 53.2337415,16.7633983 49.4023878,19.4381079" id="Clip-23" fill="#0479B8"></path>
                <path d="M40.9501701,9.24339834 L32.6656395,28.6846266 L30.0177619,11.1376349 C29.7926667,8.46429046 31.4827551,8.40851452 32.1026054,7.90692116 C31.9899592,7.51687967 31.144619,7.51687967 31.144619,7.51687967 L29.5669796,7.51687967 C29.3981088,2.94929876 33.0041701,0.943705394 35.9349456,1.16622407 C39.090619,1.27816598 42.6396667,4.89892116 40.9501701,9.24339834 L40.9501701,9.24339834 Z" id="Clip-16" fill="#7C77B7"></path>
                <path d="M28.2712517,8.29676763 L25.3406735,28.6846266 L17.0009048,9.29936929 C15.1977755,4.45271369 19.2550136,1.27816598 21.9599048,1.222 C25.0589592,0.888319502 28.9473265,3.22759336 28.2712517,8.29676763 L28.2712517,8.29676763 Z" id="Clip-9" fill="#CD1041"></path>
                <path d="M17.1585306,12.5858589 L25.2171769,30.8013817 L8.59406122,19.5490747 C4.42338776,16.8199544 5.26931973,12.1406266 7.57965306,10.0790622 C10.8477755,7.34994191 15.4680476,8.29676763 17.1585306,12.5858589" id="Clip-2" fill="#F4793E"></path>
                <mask id="mask-2" fill="white">
                    <use xlink:href="#path-1"></use>
                </mask>
                <use id="Clip-37" fill="#F1A948" xlink:href="#path-1"></use>
            </g>
        </g>
    </g>
</svg>