<?xml version="1.0" encoding="UTF-8" standalone="no"?>
<svg width="64px" height="31px" viewBox="0 0 64 31" version="1.1" xmlns="http://www.w3.org/2000/svg" xmlns:xlink="http://www.w3.org/1999/xlink">
    <!-- Generator: Sketch 40.1 (33804) - http://www.bohemiancoding.com/sketch -->
    <title>nightly</title>
    <desc>Created with Sketch.</desc>
    <defs></defs>
    <g id="Export" stroke="none" stroke-width="1" fill="none" fill-rule="evenodd">
        <g id="nightly" fill="#FFFFFF">
            <path d="M20.8404047,3.90946849 L23.8058292,5.92507131 L20.2092386,5.92507131 C19.4598779,5.92507131 18.8704376,5.25629986 19.1071675,4.44178353 C19.3852825,3.73197384 20.1555912,3.48118455 20.8404047,3.90946849 Z M22.1013743,2.14364167 L23.632795,5.55978024 L20.4745804,3.44960368 C19.6823018,2.93789219 19.8427331,2.06021412 20.282131,1.67330619 C20.9029081,1.16210136 21.7805117,1.339596 22.1013743,2.14364167 Z M24.2121871,1.33942712 L23.6557868,5.16189501 L22.0715702,1.52739242 C21.7294189,0.618640117 22.4997276,0.0229944406 23.0138912,0.0130304217 C23.6029909,-0.0501313257 24.3414518,0.388285509 24.2121871,1.33942712 Z M26.621041,1.51709064 L25.0468727,5.16206389 L24.5446307,1.87191105 C24.5013722,1.37134575 24.8230863,1.36087509 24.9399185,1.26663911 C24.9194814,1.19385111 24.7576876,1.19385111 24.7576876,1.19385111 L24.4593058,1.19385111 C24.4266064,0.336945479 25.1122714,-0.0393228984 25.668842,0.00323528437 C26.2676493,0.0229944406 26.9419036,0.702236548 26.621041,1.51709064 Z M28.2265463,3.4281557 L25.0690129,5.54897181 L26.5564938,2.17522254 C27.0061102,1.10974804 28.0550449,1.31814803 28.4297252,1.72599728 C28.8371049,2.12253146 28.9551292,2.92775929 28.2265463,3.4281557 Z M28.5588196,5.92507131 L24.9085816,5.92507131 L27.8731546,3.90946849 C28.6012266,3.43896413 29.3718759,3.86674142 29.5755658,4.4845106 C29.7903258,5.17287232 29.3081803,5.92507131 28.5588196,5.92507131 Z M30.7076113,0.136314046 L34.2818915,3.45652783 L34.2818915,0.346740616 L35.4393131,0.346740616 L35.4393131,6.10560582 L31.871675,2.72054148 L31.871675,5.91696499 L30.7076113,5.91696499 L30.7076113,0.136314046 Z M36.1251484,5.90953419 L38.9010188,5.90953419 C39.5573906,5.90953419 40.3265072,5.28382758 40.3265072,4.43114399 C40.3265072,3.55768795 39.7443902,3.12839073 39.3639193,2.95275378 C39.3639193,2.95275378 40.0647418,2.56736579 40.0354487,1.73748123 C39.99764,0.623706568 38.9388274,0.346909498 38.5648283,0.346909498 L36.1251484,0.346909498 L36.1251484,5.90953419 L36.1251484,5.90953419 Z M37.2970463,1.27795419 L38.1625579,1.27795419 C38.4532758,1.30075321 38.8039425,1.51979275 38.8039425,1.91227377 C38.8039425,2.28364458 38.5350242,2.5460867 38.1846981,2.58932041 L37.2970463,2.58932041 L37.2970463,1.27795419 Z M37.304029,3.54350189 L38.3631822,3.54350189 C38.6022964,3.55059492 39.0427161,3.78314499 39.0427161,4.27171968 C39.0427161,4.77380491 38.5953137,4.99267557 38.333889,5.01344801 L37.304029,5.01344801 L37.304029,3.54350189 Z M44.6983455,1.4971626 C43.4751845,0.704263128 41.8185864,1.51168643 41.7140166,2.98230808 C41.6690549,4.76586747 43.4753548,5.50185382 44.6983455,4.73040232 L44.6983455,5.87254911 C42.5345665,6.65919996 40.5496123,5.17439225 40.5427999,3.01912428 C40.5496123,1.19131789 42.6166556,-0.425386413 44.6983455,0.383556822 L44.6983455,1.4971626 Z M10.3830734,8.81454683 C10.077198,8.81454683 9.83178237,8.83346158 9.64699684,8.87145995 C9.462041,8.90928945 9.3201734,8.98038863 9.22139403,9.08475751 C9.12261467,9.18895751 9.05891902,9.3328447 9.03030706,9.51608132 C9.0015248,9.69948682 8.98721882,9.93659669 8.98721882,10.2270732 L8.98721882,18.3995953 L8.73856733,18.3995953 L2.27550181,10.5970929 L2.27550181,16.5604738 C2.27550181,16.8637853 2.28980779,17.1071438 2.31841974,17.2903805 C2.34720201,17.473786 2.40936488,17.6159843 2.50490837,17.7169756 C2.60062216,17.8183046 2.74061636,17.886195 2.9255722,17.9208158 C3.11035773,17.9554365 3.35594366,17.9730002 3.66181906,17.9730002 L3.66181906,18.2479396 L0.258188814,18.2479396 L0.258188814,17.9730002 C0.564064217,17.9730002 0.807947055,17.9540855 0.98949671,17.9160871 C1.17121667,17.8779198 1.3098484,17.8069895 1.40556219,17.7027895 C1.50110568,17.5984206 1.56480134,17.4547023 1.59664917,17.2712968 C1.62849699,17.0880602 1.64450606,16.8511192 1.64450606,16.560305 L1.64450606,9.81956169 C1.52341619,9.65523982 1.41016054,9.51135263 1.30507974,9.388069 C1.19999894,9.26495426 1.08827607,9.16058538 0.970422074,9.07513126 C0.852397768,8.99001489 0.717172228,8.92516433 0.564064217,8.88091733 C0.411126516,8.83667033 0.22310511,8.81454683 0,8.81454683 L0,8.5585222 L2.39029024,8.5585222 L8.36576039,15.8207721 L8.36576039,10.2270732 C8.36576039,9.93659669 8.34975132,9.69948682 8.3180738,9.51608132 C8.28605566,9.3328447 8.22065691,9.18895751 8.12204786,9.08475751 C8.02309819,8.98038863 7.88293368,8.90928945 7.70121372,8.87145995 C7.51966407,8.83346158 7.27578123,8.81454683 6.96990582,8.81454683 L6.96990582,8.5585222 L10.3830734,8.5585222 L10.3830734,8.81454683 L10.3830734,8.81454683 Z M11.3388489,18.2477707 L11.3388489,17.9728313 C11.6510257,17.9728313 11.8996772,17.9523966 12.0846331,17.9113584 C12.2694186,17.8703201 12.4097534,17.7975321 12.5052969,17.6931633 C12.6008404,17.5889633 12.6614705,17.4435561 12.6870168,17.2571108 C12.7122226,17.0706654 12.7251661,16.8320356 12.7251661,16.5415591 L12.7251661,10.2650716 C12.7251661,9.96800869 12.7122226,9.726339 12.6870168,9.53972475 C12.6614705,9.35344826 12.6008404,9.2065212 12.5052969,9.09894357 C12.4097534,8.99153483 12.2694186,8.91722689 12.0846331,8.87618864 C11.8996772,8.83515039 11.6510257,8.81454683 11.3388489,8.81454683 L11.3388489,8.5585222 L15.5264126,8.5585222 L15.5264126,8.81454683 C15.2205372,8.81454683 14.9751215,8.83515039 14.790336,8.87618864 C14.6053802,8.91722689 14.4636829,8.99153483 14.3649035,9.09894357 C14.2659539,9.2065212 14.2007254,9.35344826 14.1688776,9.53972475 C14.1368594,9.726339 14.1210207,9.96800869 14.1210207,10.2650716 L14.1210207,16.5415591 C14.1210207,16.8322045 14.1353267,17.0708343 14.1641089,17.2571108 C14.1927209,17.4435561 14.2548838,17.5889633 14.3505975,17.6931633 C14.446141,17.7975321 14.5863055,17.8703201 14.7712614,17.9113584 C14.9560469,17.9523966 15.207764,17.9728313 15.5264126,17.9728313 L15.5264126,18.2477707 L11.3388489,18.2477707 Z M25.7093726,13.2230341 C25.4416465,13.2230341 25.2345504,13.254615 25.0879142,13.3179456 C24.9412779,13.3811074 24.8329612,13.4728101 24.7627938,13.592885 C24.6926264,13.7129599 24.6497085,13.8615758 24.6338697,14.0385638 C24.6178606,14.2155518 24.6098561,14.4146633 24.6098561,14.6357294 L24.6098561,17.6031493 C24.087177,17.9066297 23.5343532,18.1293846 22.9510441,18.271583 C22.3679052,18.4137814 21.7702901,18.4848806 21.158369,18.4848806 C20.4125848,18.4848806 19.7114216,18.3742631 19.0550498,18.1530281 C18.3985077,17.9317931 17.8264389,17.6095668 17.3388435,17.1860116 C16.8512482,16.7626252 16.4654977,16.2460162 16.1821032,15.6358467 C15.898368,15.0260149 15.7565004,14.3292091 15.7565004,13.5452604 C15.7565004,12.8248111 15.8886603,12.1486089 16.1533209,11.5164848 C16.4176408,10.8845295 16.7826136,10.3331309 17.2480687,9.86211987 C17.7131833,9.39144664 18.2629415,9.02159576 18.8971731,8.75290502 C19.5314048,8.48438315 20.2150261,8.34995333 20.9480371,8.34995333 C21.266856,8.34995333 21.5805656,8.37376565 21.8898472,8.42105252 C22.1989585,8.46850827 22.5065369,8.54602496 22.8124124,8.65326483 C22.8251855,8.65326483 22.876108,8.6691397 22.9655204,8.70072058 C23.0545921,8.73247033 23.1518387,8.76557114 23.2570898,8.80036077 C23.3621706,8.83515039 23.4594172,8.8682512 23.5486592,8.89983207 C23.6377309,8.93158183 23.6855878,8.94728783 23.6920596,8.94728783 C23.7620567,8.94728783 23.8194509,8.92364439 23.8642422,8.87618864 C23.908693,8.82873289 23.9454798,8.77350858 23.9740917,8.71017795 C24.0027037,8.64718509 24.0234814,8.58233452 24.0362546,8.51579514 C24.0488575,8.44942464 24.0585651,8.39420033 24.0648665,8.34995333 L24.313518,8.34995333 L24.5717068,11.39337 L24.313518,11.39337 C24.1859564,11.0013957 24.0267173,10.6491085 23.83546,10.3361707 C23.644373,10.0234019 23.4178617,9.75471113 23.1566073,9.53026738 C22.8951826,9.30599251 22.5925431,9.1337332 22.2483481,9.01365833 C21.9041532,8.89358345 21.5153371,8.83346158 21.0819001,8.83346158 C20.4444326,8.83346158 19.8963775,8.9567452 19.4373941,9.20331245 C18.978581,9.44971082 18.5993023,9.77852344 18.2997283,10.1892437 C17.999984,10.6001328 17.7787523,11.0709749 17.6351816,11.60177 C17.4919516,12.132734 17.4200811,12.679404 17.4200811,13.2419489 C17.4200811,13.8044938 17.4950171,14.3670386 17.6447189,14.9292457 C17.7944208,15.4921284 18.0239976,15.99928 18.3331089,16.4512074 C18.6422202,16.9031348 19.032569,17.2697769 19.5043256,17.5509649 C19.9759119,17.8323218 20.5369105,17.9728313 21.1871512,17.9728313 C21.5374773,17.9728313 21.8833754,17.9301043 22.2245048,17.844819 C22.5654639,17.7595338 22.8888812,17.6284816 23.1949269,17.4513247 L23.1949269,14.6355605 C23.1949269,14.3702474 23.1821537,14.1490124 23.1566073,13.9718555 C23.1310609,13.7950364 23.0736667,13.652838 22.984595,13.5452604 C22.8951826,13.4376828 22.7677913,13.358815 22.6020804,13.3083194 C22.4363695,13.2578238 22.2101989,13.2294516 21.9233981,13.2230341 L21.9233981,12.9670095 L25.7093726,12.9670095 L25.7093726,13.2230341 L25.7093726,13.2230341 Z M31.8972184,18.2477707 L31.8972184,17.9728313 C32.2030938,17.9728313 32.4502125,17.9523966 32.6382339,17.9113584 C32.8262553,17.8703201 32.9694854,17.7975321 33.068435,17.6931633 C33.1672144,17.5889633 33.2324428,17.4435561 33.264461,17.2571108 C33.2963088,17.0706654 33.3123179,16.8320356 33.3123179,16.5415591 L33.3123179,13.564344 L28.7422396,13.564344 L28.7422396,16.5415591 C28.7422396,16.838622 28.7579081,17.0802917 28.7899262,17.2665681 C28.821774,17.4530135 28.8887056,17.5984206 28.9907208,17.7027895 C29.0925657,17.8069895 29.2376692,17.8782576 29.4256906,17.9160871 C29.613712,17.9540855 29.8638963,17.9730002 30.1764138,17.9730002 L30.1764138,18.2479396 L25.9886798,18.2479396 L25.9886798,17.9730002 C26.3008566,17.9730002 26.5495081,17.9540855 26.7344639,17.9160871 C26.9192495,17.8782576 27.059414,17.8069895 27.1551278,17.7027895 C27.2506713,17.5984206 27.311131,17.4530135 27.3366774,17.2665681 C27.3622238,17.0802917 27.374997,16.838622 27.374997,16.5415591 L27.374997,10.2650716 C27.374997,9.96800869 27.360691,9.726339 27.3319088,9.53972475 C27.3032968,9.35344826 27.2411339,9.2065212 27.1455905,9.09894357 C27.0498767,8.99153483 26.9095418,8.91722689 26.7247563,8.87618864 C26.5398005,8.83515039 26.2945552,8.81454683 25.9886798,8.81454683 L25.9886798,8.5585222 L30.1764138,8.5585222 L30.1764138,8.81454683 C29.8703681,8.81454683 29.6249524,8.83515039 29.4401669,8.87618864 C29.2552111,8.91722689 29.1102779,8.99153483 29.0051971,9.09894357 C28.899946,9.2065212 28.8297786,9.35344826 28.7946949,9.53972475 C28.7596112,9.726339 28.7422396,9.96800869 28.7422396,10.2650716 L28.7422396,13.0430063 L33.3123179,13.0430063 L33.3123179,10.2650716 C33.3123179,9.96800869 33.2963088,9.726339 33.264461,9.53972475 C33.2324428,9.35344826 33.1672144,9.2065212 33.068435,9.09894357 C32.9694854,8.99153483 32.8262553,8.91722689 32.6382339,8.87618864 C32.4502125,8.83515039 32.2030938,8.81454683 31.8972184,8.81454683 L31.8972184,8.5585222 L36.0849524,8.5585222 L36.0849524,8.81454683 C35.7981516,8.81454683 35.5638061,8.83211052 35.3820861,8.86673127 C35.2005365,8.90152089 35.0571361,8.96620257 34.9520553,9.06111408 C34.8468042,9.1558567 34.775104,9.29011763 34.7367844,9.46389688 C34.6986351,9.63784501 34.6793902,9.86701744 34.6793902,10.1514142 L34.6986351,16.6361328 C34.6986351,16.9269471 34.7177098,17.1606793 34.7560293,17.3376673 C34.7941786,17.5146553 34.8626429,17.6506051 34.9615926,17.7453477 C35.0602017,17.8400903 35.2005365,17.9017321 35.3820861,17.9301043 C35.5638061,17.9586453 35.7981516,17.9728313 36.0849524,17.9728313 L36.0849524,18.2477707 L31.8972184,18.2477707 L31.8972184,18.2477707 Z M45.0588871,10.8340339 C45.0014929,10.2841552 44.8325461,9.86853738 44.5520468,9.58734938 C44.2715474,9.30616139 43.8413463,9.16548295 43.2614433,9.16548295 L41.8942007,9.16548295 L41.8942007,16.560305 C41.8942007,16.8575367 41.9069739,17.0976865 41.9325203,17.2809231 C41.9578964,17.4643286 42.0185265,17.6080469 42.1140699,17.7124158 C42.2097837,17.8166158 42.3484155,17.886195 42.5299651,17.9208158 C42.7116851,17.9556054 42.9553976,17.9730002 43.2614433,17.9730002 L43.2614433,18.2479396 L39.1311035,18.2479396 L39.1311035,17.9730002 C39.4371492,17.9730002 39.679329,17.9540855 39.8578131,17.916256 C40.0361268,17.8780887 40.1732258,17.8071584 40.2689396,17.7027895 C40.3644831,17.5984206 40.4266459,17.4547023 40.4552579,17.2712968 C40.4840402,17.0880602 40.4983461,16.8511192 40.4983461,16.560305 L40.4983461,9.16548295 L39.3223608,9.16548295 C39.0164854,9.16548295 38.7487593,9.19233514 38.5193527,9.24603951 C38.2897759,9.29974389 38.0969858,9.38975782 37.9408122,9.5162502 C37.7846386,9.64274257 37.6635488,9.81331307 37.5775426,10.0281306 C37.4913661,10.2431169 37.4355047,10.5116388 37.4101286,10.8340339 L37.0756413,10.8340339 L37.1711847,8.55869109 L45.2787563,8.55869109 L45.3744701,10.8340339 L45.0588871,10.8340339 Z M53.918374,18.2477707 L46.3270097,18.2477707 L46.3270097,17.9728313 C46.556246,17.9728313 46.7604467,17.9586453 46.9389308,17.9301043 C47.1172446,17.9017321 47.265584,17.844819 47.383438,17.7595338 C47.501292,17.6742485 47.5920668,17.5524848 47.6559327,17.3945805 C47.7196284,17.2365072 47.7514762,17.0279383 47.7514762,16.7688738 L47.7514762,10.0375879 C47.7514762,9.78477207 47.7196284,9.57941195 47.6559327,9.42133869 C47.5920668,9.26343433 47.501292,9.14167064 47.383438,9.05638539 C47.265584,8.97093126 47.1172446,8.91266708 46.9389308,8.88091733 C46.7604467,8.84933645 46.556246,8.83346158 46.3270097,8.83346158 L46.3270097,8.5585222 L50.5721379,8.5585222 L50.5721379,8.83346158 C50.3360893,8.83346158 50.1289933,8.84933645 49.9505092,8.88091733 C49.7720251,8.91266708 49.622153,8.97093126 49.5010631,9.05638539 C49.3801435,9.14167064 49.2876656,9.26343433 49.22397,9.42133869 C49.1602743,9.57941195 49.1282562,9.78477207 49.1282562,10.0375879 L49.1282562,16.4181066 C49.1282562,16.6582563 49.1473308,16.8558479 49.1856504,17.0105435 C49.22397,17.1655769 49.2891984,17.2886916 49.3816763,17.3802255 C49.4739839,17.4719283 49.6000128,17.5352589 49.7592519,17.5698796 C49.9186614,17.6046693 50.1192857,17.6220641 50.3616357,17.6220641 L51.3369968,17.6220641 C51.8084127,17.6220641 52.2037005,17.5953808 52.5225194,17.5415075 C52.841168,17.4878031 53.1167284,17.386643 53.3493708,17.2380271 C53.5820132,17.0895801 53.7875765,16.8810113 53.9660606,16.6123205 C54.1445446,16.3439675 54.3260943,15.9945513 54.5108798,15.5647475 L54.759361,15.6027459 L53.918374,18.2477707 Z M64,8.81454683 C63.7131992,8.81454683 63.4677836,8.86200258 63.2639234,8.9567452 C63.0597227,9.05148782 62.8768105,9.17477145 62.7139949,9.32642719 C62.5515199,9.47825182 62.4048836,9.653551 62.2742564,9.8526625 C62.1434589,10.051774 62.011299,10.2556142 61.8774359,10.4641831 L59.5159279,14.1333064 L59.5159279,16.560305 C59.5159279,16.8575367 59.531937,17.0976865 59.5637848,17.2809231 C59.5956326,17.4643286 59.6594986,17.6080469 59.7550421,17.7122469 C59.8505856,17.8166158 59.9892173,17.886195 60.170767,17.9208158 C60.3523166,17.9554365 60.5961994,17.9730002 60.9022452,17.9730002 L60.9022452,18.2479396 L56.7528307,18.2479396 L56.7528307,17.9730002 C57.0588764,17.9730002 57.3010562,17.9540855 57.4795403,17.9160871 C57.6580244,17.8779198 57.7934202,17.8069895 57.8858981,17.7027895 C57.9782057,17.5984206 58.037303,17.4547023 58.0628494,17.2712968 C58.0880552,17.0880602 58.101169,16.8511192 58.101169,16.560305 L58.101169,14.2658785 L55.4433229,10.2081584 C55.3411374,10.0502541 55.2312879,9.88914094 55.1132636,9.72465019 C54.9954096,9.5604972 54.8663152,9.41036139 54.7261507,9.27441164 C54.5859862,9.13846189 54.4298126,9.02784439 54.25763,8.94255914 C54.0856177,8.85710501 53.8911245,8.81454683 53.6744911,8.81454683 L53.6744911,8.5585222 L57.8525175,8.5585222 L57.8525175,8.81454683 C57.7505023,8.81454683 57.6341811,8.82096433 57.5033836,8.83346158 C57.3727564,8.8461277 57.2501337,8.87297989 57.1355156,8.91401814 C57.0207272,8.95522526 56.9251837,9.01838701 56.8485445,9.10367226 C56.7719054,9.18895751 56.7337561,9.30447257 56.7337561,9.44971082 C56.7337561,9.5383737 56.7926831,9.69948682 56.9107074,9.93321906 C57.0282208,10.1671202 57.1782632,10.4309134 57.3599832,10.7249364 C57.5417031,11.0187905 57.7375588,11.3254796 57.948061,11.6444971 C58.1583929,11.9636835 58.3544189,12.2577065 58.5359685,12.5262283 C58.7175182,12.7949191 58.872159,13.0208828 58.9997206,13.2041194 C59.1271119,13.3875249 59.1942137,13.4885161 59.2005152,13.5074309 L61.1413593,10.5210962 C61.1796789,10.4579344 61.2241296,10.3836265 61.2752224,10.2983412 C61.3261449,10.2128871 61.3722987,10.124562 61.4136838,10.0328592 C61.455069,9.9411565 61.4915151,9.84945375 61.5237036,9.757751 C61.5555514,9.66621713 61.5715605,9.58245182 61.5715605,9.50662394 C61.5715605,9.37388294 61.5395423,9.26343433 61.4758467,9.17477145 C61.4119807,9.08627745 61.3324463,9.01517826 61.2369028,8.96147389 C61.141189,8.90776951 61.0361082,8.86994002 60.9213198,8.84764764 C60.8065314,8.82552414 60.6949788,8.81454683 60.5866621,8.81454683 L60.5866621,8.5585222 L63.9998297,8.5585222 L63.9998297,8.81454683 L64,8.81454683 Z M22.0369266,21.2974082 C21.7310512,21.2974082 21.4856356,21.3163229 21.30085,21.3543213 C21.1158942,21.3921508 20.9740266,21.46325 20.8754175,21.5676189 C20.7764679,21.6718189 20.7127722,21.8157061 20.6841603,21.9989427 C20.6555483,22.1823482 20.641072,22.4194581 20.641072,22.7099345 L20.641072,30.8824567 L20.3925908,30.8824567 L13.929355,23.0799543 L13.929355,29.0433352 C13.929355,29.3466467 13.943661,29.5900052 13.9724433,29.7732418 C14.0012255,29.9566473 14.0632181,30.0988457 14.1589319,30.1998369 C14.2546457,30.301166 14.3946399,30.3690564 14.5795957,30.4036771 C14.7645515,30.4382979 15.0097969,30.4558616 15.3158426,30.4558616 L15.3158426,30.7308009 L11.9122123,30.7308009 L11.9122123,30.4558616 C12.218258,30.4558616 12.4619706,30.4369468 12.6436905,30.3989484 C12.8252402,30.3607812 12.9638719,30.2898509 13.0594154,30.1856509 C13.1551292,30.081282 13.2188248,29.9375637 13.2506727,29.7541582 C13.2825205,29.5709216 13.298189,29.3339806 13.298189,29.0431663 L13.298189,22.3024231 C13.1772694,22.1381012 13.0640137,21.994214 12.9591032,21.8709304 C12.8538521,21.7478156 12.7422996,21.6434468 12.6244456,21.5579926 C12.5064213,21.4728763 12.3710254,21.4080257 12.2180877,21.3637787 C12.06515,21.3195317 11.8769583,21.2974082 11.6540235,21.2974082 L11.6540235,21.0413836 L14.0441434,21.0413836 L20.0197839,28.3036335 L20.0197839,22.7099345 C20.0197839,22.4194581 20.0037748,22.1823482 19.971927,21.9989427 C19.9399089,21.8157061 19.8748507,21.6718189 19.7760714,21.5676189 C19.6771217,21.46325 19.5371275,21.3921508 19.3554075,21.3543213 C19.1736876,21.3163229 18.9298047,21.2974082 18.6239293,21.2974082 L18.6239293,21.0413836 L22.0370969,21.0413836 L22.0370969,21.2974082 L22.0369266,21.2974082 Z M30.3991105,30.7306321 L22.8842151,30.7306321 L22.8842151,30.4556927 C23.1902608,30.4556927 23.4339733,30.4367779 23.6156933,30.3987796 C23.7972429,30.3609501 23.9358747,30.289682 24.0314181,30.185482 C24.1271319,30.0811131 24.1908276,29.935706 24.2226754,29.7492606 C24.2545233,29.5629841 24.270362,29.3213145 24.270362,29.0242516 L24.270362,22.7097657 C24.270362,22.4064542 24.2575888,22.1632646 24.2320424,21.9798591 C24.2066664,21.7966224 24.1460363,21.6544241 24.0504928,21.5532639 C23.954779,21.4522727 23.8146145,21.3842134 23.629829,21.3494238 C23.4448731,21.314803 23.1962216,21.2972393 22.8840448,21.2972393 L22.8840448,21.0412147 L30.3989402,21.0412147 L30.5135583,23.1554444 L30.2460025,23.1554444 C30.1630619,22.8458843 30.0850602,22.5883397 30.0118273,22.3828107 C29.9382537,22.1774506 29.8396446,22.0146487 29.7153189,21.8945738 C29.5911634,21.7744989 29.4220464,21.6892137 29.2086489,21.6385492 C28.9949108,21.5880536 28.7065772,21.5627213 28.3433076,21.5627213 L25.6471419,21.5627213 L25.6471419,25.3931266 L27.7984883,25.3931266 C28.0980623,25.3931266 28.3387092,25.3725231 28.5202589,25.3313159 C28.7018086,25.2902777 28.8486151,25.2174897 28.9599974,25.1132897 C29.0713796,25.0090897 29.1544905,24.8668913 29.2086489,24.6866946 C29.2626369,24.5066667 29.308961,24.2744544 29.3471103,23.9898888 L29.6148364,23.9898888 L29.6148364,27.3744465 L29.3471103,27.3744465 C29.3087907,27.0900497 29.2626369,26.8563175 29.2086489,26.672912 C29.1544905,26.4896754 29.0730827,26.3427483 28.964766,26.2321308 C28.856279,26.1216822 28.7113459,26.0443344 28.5296259,25.9999185 C28.3480763,25.9556715 28.1041934,25.933548 27.798318,25.933548 L25.6469716,25.933548 L25.6469716,29.1189942 C25.6469716,29.2959822 25.6502075,29.4525355 25.6566793,29.5881475 C25.6629807,29.7242661 25.6900599,29.8379235 25.7379168,29.9294574 C25.7857737,30.0211601 25.8671815,30.0905705 25.9816293,30.1378574 C26.096588,30.1853131 26.2590631,30.2091254 26.469395,30.2091254 L28.113901,30.2091254 C28.5408663,30.2091254 28.8913627,30.1743358 29.1655606,30.1047566 C29.4394179,30.0353462 29.6771696,29.9248976 29.8777939,29.7729041 C30.0787588,29.6212483 30.2586054,29.4238256 30.4181851,29.1802983 C30.5774243,28.9371086 30.7559084,28.6446056 30.9536374,28.3034646 L31.2595128,28.3034646 L30.3991105,30.7306321 Z M44.4092599,21.4728763 C44.2433786,21.5897424 44.10645,21.7381894 43.9981333,21.9183861 C43.8896463,22.0985829 43.7988715,22.2961744 43.7256385,22.5109919 C43.6522353,22.7258094 43.5805351,22.9281297 43.5103677,23.1176149 L40.8046647,30.9675731 L40.4987893,30.9675731 L38.280852,24.7672511 L36.0721114,30.9675731 L35.794848,30.9675731 L32.9169624,22.909046 C32.8406638,22.7004772 32.7687933,22.5000146 32.7018618,22.3071517 C32.6349302,22.1142889 32.5519896,21.9420296 32.4532103,21.7903738 C32.3544309,21.6387181 32.2253365,21.5188121 32.0660974,21.4301492 C31.9066879,21.3416552 31.6932904,21.2974082 31.4255643,21.2974082 L31.4255643,21.0413836 L35.0299891,21.0413836 L35.0299891,21.2974082 C34.9342754,21.2974082 34.8307273,21.3038257 34.7191748,21.3163229 C34.6077925,21.3289891 34.5057773,21.3543213 34.4132994,21.3921508 C34.3208215,21.4301492 34.2443526,21.4870623 34.1837225,21.5628902 C34.1232627,21.6387181 34.0929477,21.7429181 34.0929477,21.8756591 C34.0929477,21.9516558 34.1057209,22.0401498 34.1312673,22.1411411 C34.1566433,22.2423012 34.1852553,22.3466701 34.2172734,22.4540788 C34.2492916,22.5614876 34.2826722,22.6658564 34.3177559,22.7668477 C34.3526693,22.8680078 34.3831546,22.9534619 34.4085307,23.0228723 L36.3207629,28.4743728 L37.9461943,23.838233 C37.8760269,23.6045008 37.7963222,23.3405387 37.7072505,23.0465157 C37.6180084,22.7526616 37.50322,22.4762023 37.3630555,22.2169689 C37.222891,21.9579044 37.0490052,21.7398782 36.8419092,21.5628902 C36.6348132,21.3859022 36.3781571,21.2974082 36.0722817,21.2974082 L36.0722817,21.0413836 L39.8868682,21.0413836 L39.8868682,21.2974082 C39.7657783,21.2974082 39.643326,21.300617 39.5188299,21.3068656 C39.3946745,21.3132831 39.2829516,21.3369265 39.1841722,21.3779648 C39.0853929,21.4191719 39.0056881,21.4823336 38.9452284,21.5676189 C38.8845983,21.6529041 38.8544535,21.7746678 38.8544535,21.9325722 C38.8544535,22.1284749 38.8878342,22.3449812 38.954936,22.5819222 C39.0218675,22.8190321 39.0899912,23.0228723 39.1604993,23.1936117 L41.0439492,28.4743728 L42.9083245,23.1176149 C42.9337006,23.041787 42.9623125,22.9534619 42.9943306,22.8523018 C43.0263488,22.7511417 43.0566638,22.6469417 43.0852758,22.5393641 C43.1138877,22.4319553 43.1392638,22.3260665 43.1615743,22.2216976 C43.1838848,22.1174976 43.1949549,22.0274837 43.1949549,21.9516558 C43.1949549,21.8126662 43.1615743,21.7003599 43.0946428,21.6149058 C43.027541,21.5296205 42.9417051,21.46325 42.8366243,21.4159631 C42.7312029,21.3685074 42.6181175,21.3369265 42.4970277,21.3210516 C42.3759378,21.3053456 42.2580838,21.2974082 42.1432954,21.2974082 L42.1432954,21.0413836 L45.0402556,21.0413836 L45.0402556,21.2974082 C44.7853027,21.2974082 44.5749707,21.3558413 44.4092599,21.4728763 Z M51.9122336,28.2467203 C51.9122336,28.6702756 51.8260571,29.049415 51.6540448,29.3843073 C51.4818622,29.7193686 51.2538181,30.0039342 50.9702532,30.2376664 C50.6866883,30.4715676 50.3598648,30.6517643 49.9902938,30.7780878 C49.6205524,30.9044113 49.2382082,30.9675731 48.8430907,30.9675731 C48.581666,30.9675731 48.3204116,30.9375121 48.058987,30.8775591 C47.7975623,30.8176061 47.5507842,30.7527556 47.3179714,30.6833452 C47.0851587,30.6139348 46.8734643,30.5490843 46.682207,30.4889624 C46.4909497,30.4291783 46.3347762,30.3989484 46.2136863,30.3989484 C46.1373878,30.3989484 46.0718187,30.4165121 46.0178307,30.4511329 C45.9636723,30.4860914 45.918881,30.5318583 45.8839676,30.5886026 C45.8488839,30.6455157 45.8233375,30.7071575 45.8074987,30.773528 C45.7914897,30.8400674 45.7771837,30.9045802 45.7645808,30.9677419 L45.5062217,30.9677419 L45.5062217,27.6211826 L45.7645808,27.6211826 C45.8155033,28.0324095 45.9142826,28.4080023 46.0609189,28.7494811 C46.2073849,29.090791 46.401878,29.383294 46.6440578,29.6263148 C46.8862375,29.8696733 47.1779772,30.0593274 47.5189363,30.1951083 C47.8598955,30.3312269 48.2470084,30.3989484 48.6806157,30.3989484 C48.9163237,30.3989484 49.1504989,30.3658476 49.3833116,30.2994771 C49.6157838,30.2329378 49.8230501,30.1336353 50.0045998,30.0007254 C50.1863197,29.8679845 50.3346591,29.7019738 50.4492772,29.5030311 C50.5638953,29.3039196 50.6212895,29.0715385 50.6212895,28.8063942 C50.6212895,28.5282461 50.5463535,28.2767813 50.396822,28.0525064 C50.2467795,27.8282316 50.0509239,27.6196627 49.8087441,27.4269687 C49.5665644,27.2339369 49.2891306,27.0507003 48.9769538,26.8767522 C48.6646066,26.7031418 48.3474908,26.5276738 48.0256063,26.3506858 C47.7035516,26.1736978 47.3864358,25.9874213 47.0742589,25.7913496 C46.7619118,25.5956158 46.4846483,25.3792783 46.2424686,25.1419996 C46.0001185,24.9048897 45.8042629,24.6427853 45.6543907,24.3551799 C45.5046889,24.0675744 45.4299232,23.7404505 45.4299232,23.3738084 C45.4299232,22.9757543 45.5079248,22.6185696 45.6640984,22.3025919 C45.8202719,21.9866143 46.0289008,21.7194435 46.2903255,21.5014173 C46.5515798,21.283391 46.8528569,21.1173803 47.1939863,21.003723 C47.5347751,20.8898967 47.8932761,20.8329836 48.2694892,20.8329836 C48.4925943,20.8329836 48.7139963,20.8615246 48.9338655,20.9182688 C49.1537348,20.975182 49.3640667,21.0368238 49.5648613,21.1031943 C49.7656559,21.1695648 49.9487383,21.2312066 50.1147898,21.2881197 C50.2805007,21.3450328 50.4172591,21.373405 50.5257461,21.373405 C50.6022149,21.373405 50.6659106,21.3544902 50.7170033,21.3164918 C50.7679258,21.2786623 50.8127171,21.2328954 50.8508664,21.1790221 C50.889186,21.1254867 50.9191604,21.0668847 50.9416412,21.003723 C50.9639517,20.9405612 50.9813233,20.8836481 50.9942668,20.8329836 L51.2715302,20.8329836 L51.2715302,24.1702544 L50.9942668,24.1702544 C50.9622486,23.7909462 50.8794784,23.4324104 50.7457856,23.0941404 C50.6119225,22.7560392 50.4317353,22.4621851 50.2055647,22.2124091 C49.9792237,21.962802 49.7065586,21.7636905 49.3880803,21.6150746 C49.0692614,21.4667965 48.7029262,21.3923197 48.2885638,21.3923197 C48.0717602,21.3923197 47.8614282,21.4272782 47.6575681,21.4966886 C47.4535376,21.5662678 47.2704552,21.665908 47.1076395,21.7952714 C46.9451645,21.9249725 46.814367,22.0796681 46.7155876,22.2598649 C46.6168083,22.4400616 46.5674186,22.6439018 46.5674186,22.8713854 C46.5674186,23.1368674 46.6438874,23.3771861 46.7969955,23.5920036 C46.9501035,23.806821 47.1522605,24.0059325 47.4039776,24.1891692 C47.655865,24.3725747 47.9409627,24.5480427 48.2596112,24.7154045 C48.5782598,24.8829351 48.9050833,25.0535056 49.2397409,25.2272848 C49.5743986,25.4010641 49.9008814,25.5859895 50.2197003,25.7818923 C50.5383489,25.977795 50.8234466,26.1958213 51.075334,26.435971 C51.327051,26.6762896 51.5293784,26.9432916 51.6823161,27.2371457 C51.8352538,27.5309998 51.9122336,27.867581 51.9122336,28.2467203 Z" id="Nightly-News"></path>
        </g>
    </g>
</svg>