<?xml version="1.0" encoding="UTF-8" standalone="no"?>
<svg width="61px" height="46px" viewBox="0 0 61 46" version="1.1" xmlns="http://www.w3.org/2000/svg" xmlns:xlink="http://www.w3.org/1999/xlink">
    <!-- Generator: Sketch 40.1 (33804) - http://www.bohemiancoding.com/sketch -->
    <title>today</title>
    <desc>Created with Sketch.</desc>
    <defs>
        <path d="M17.7570496,30.2866512 C13.299839,30.28897 10.2152049,30.2941811 10.2142256,30.3036291 C10.2142256,19.2185922 19.1844676,10.2323942 30.2498219,10.2323942 C41.3151762,10.2323942 50.2854182,19.2185922 50.2854182,30.3036291 C50.2830344,30.3000043 47.1987928,30.2957702 42.7426005,30.2922707 C42.7364769,23.3856451 37.145616,17.7886238 30.2498219,17.7886238 C23.3558982,17.7886238 17.7661999,23.3826093 17.7570496,30.2866512 Z M7.85723655,30.2234822 C3.08329649,30.2239366 -0.00071122398,30.2244491 7.03071983e-08,30.2249183 C7.03071983e-08,13.5321569 13.5081292,0 30.171251,0 C46.8343727,0 60.3425019,13.5321569 60.3425019,30.2249183 C60.3406496,30.2238016 57.324788,30.2230804 52.6424044,30.2226569 C52.5988351,17.8707391 42.5900287,7.87107248 30.2498219,7.87107248 C17.9093404,7.87107248 7.90036293,17.8711846 7.85723655,30.2234822 Z M40.2283346,30.3036291 C40.2283346,24.782846 35.7608023,20.307367 30.2498219,20.307367 C24.7388416,20.307367 20.2713093,24.782846 20.2713093,30.3036291 C20.2627923,30.3272269 40.2508163,30.2960962 40.2283346,30.3036291 Z" id="path-1"></path>
        <filter x="-50%" y="-50%" width="200%" height="200%" filterUnits="objectBoundingBox" id="filter-2">
            <feGaussianBlur stdDeviation="3" in="SourceAlpha" result="shadowBlurInner1"></feGaussianBlur>
            <feOffset dx="0" dy="0" in="shadowBlurInner1" result="shadowOffsetInner1"></feOffset>
            <feComposite in="shadowOffsetInner1" in2="SourceAlpha" operator="arithmetic" k2="-1" k3="1" result="shadowInnerInner1"></feComposite>
            <feColorMatrix values="0 0 0 0 0.952941176   0 0 0 0 0.623529412   0 0 0 0 0.145098039  0 0 0 1 0" type="matrix" in="shadowInnerInner1"></feColorMatrix>
        </filter>
    </defs>
    <g id="Export" stroke="none" stroke-width="1" fill="none" fill-rule="evenodd">
        <g id="today">
            <g id="Today">
                <path d="M17.1480443,33.4547136 C21.2541077,33.4547136 23.5712898,36.2333895 23.5712898,39.7185203 C23.5712898,43.2040003 21.2541077,45.9823269 17.1480443,45.9823269 C13.0423593,45.9823269 10.7251771,43.2040003 10.7251771,39.7185203 C10.7251771,36.2333895 13.0423593,33.4547136 17.1480443,33.4547136 L17.1480443,33.4547136 Z M20.3345906,39.7185203 C20.3345906,37.9337003 19.3380709,36.1488803 17.1480443,36.1488803 C14.9587745,36.1488803 13.9618764,37.9337003 13.9618764,39.7185203 C13.9618764,41.5033402 14.9587745,43.131088 17.1480443,43.131088 C19.3380709,43.131088 20.3345906,41.5033402 20.3345906,39.7185203 Z M6.76328638,36.4017095 L6.76328638,45.729847 L3.43556306,45.729847 L3.43556306,36.4017095 L0.14176574,36.4017095 L0.14176574,33.7075427 L10.0570837,33.7075427 L10.0570837,36.4017095 L6.76328638,36.4017095 Z M30.856504,33.7075427 C34.655773,33.7075427 36.928354,35.9466869 36.928354,39.6678846 C36.928354,43.608038 34.6212309,45.729847 30.856504,45.729847 L25.5305469,45.729847 L25.5305469,33.7075427 L30.856504,33.7075427 Z M30.2840409,43.0356803 C32.7304118,42.9846954 33.7022677,42.059285 33.7022677,39.6514717 C33.7022677,37.4622648 32.4875378,36.4017095 30.2840409,36.4017095 L28.757353,36.4017095 L28.757353,43.0356803 L30.2840409,43.0356803 Z M45.4625864,33.7075427 L50.1282763,45.729847 L46.6242022,45.729847 L45.8295758,43.8897058 L41.3315629,43.8897058 L40.5185788,45.729847 L37.0684539,45.729847 L41.7341437,33.7075427 L45.4625864,33.7075427 Z M42.1078317,41.2512095 L45.0345747,41.2512095 L43.6071693,37.0414649 L43.5712032,37.0414649 L42.1078317,41.2512095 Z M56.4709484,45.729847 L53.2512941,45.729847 L53.2512941,40.7789452 L48.750814,33.7075427 L52.4030342,33.7075427 L54.8613008,37.9608813 L57.3188494,33.7075427 L60.9710696,33.7075427 L56.4709484,40.7789452 L56.4709484,45.729847 Z" id="TODAY-2" fill="#FFFFFF"></path>
                <g id="Icon-2">
                    <use fill="#F28023" fill-rule="evenodd" xlink:href="#path-1"></use>
                    <use fill="black" fill-opacity="1" filter="url(#filter-2)" xlink:href="#path-1"></use>
                </g>
            </g>
        </g>
    </g>
</svg>